<mxfile host="app.diagrams.net" version="27.2.0">
  <diagram name="Professional Use Case Specification" id="dangnhap_spec">
    <mxGraphModel dx="1138" dy="408" grid="1" gridSize="10" guides="1" tooltips="1" connect="1" arrows="1" fold="1" page="1" pageScale="1" pageWidth="827" pageHeight="1169" background="#ffffff" math="0" shadow="0">
      <root>
        <mxCell id="0" />
        <mxCell id="1" parent="0" />
        <mxCell id="spec-container-login" value="" style="rounded=0;whiteSpace=wrap;html=1;shadow=0;strokeWidth=1;fillColor=none;verticalAlign=top;align=left;spacingLeft=10;spacingTop=10;" parent="1" vertex="1">
          <mxGeometry x="40" y="40" width="740" height="820" as="geometry" />
        </mxCell>
        <mxCell id="title-login" value="&lt;b style=&quot;font-size: 14px;&quot;&gt;Đặc tả use case 'Đăng nhập'&lt;/b&gt;" style="text;html=1;strokeColor=none;fillColor=none;align=left;verticalAlign=middle;whiteSpace=wrap;rounded=0;spacingLeft=5;fontFamily=Helvetica;" parent="spec-container-login" vertex="1">
          <mxGeometry width="740" height="40" as="geometry" />
        </mxCell>
        <mxCell id="table-info" value="" style="shape=table;startSize=0;container=1;collapsible=0;childLayout=tableLayout;fixedRows=1;rowLines=1;fontStyle=0;align=center;resizeLast=1;fontFamily=Helvetica;fontSize=12;" parent="spec-container-login" vertex="1">
          <mxGeometry y="40" width="740" height="210" as="geometry" />
        </mxCell>
        <mxCell id="info-row1" style="shape=tableRow;horizontal=0;startSize=0;swimlaneHead=0;swimlaneBody=0;top=0;left=0;bottom=0;right=0;collapsible=0;dropTarget=0;fillColor=none;" parent="table-info" vertex="1">
          <mxGeometry width="740" height="30" as="geometry" />
        </mxCell>
        <mxCell id="info-r1c1" value="&lt;b&gt;Tên use case&lt;/b&gt;" style="shape=partialRectangle;html=1;collapsible=0;dropTarget=0;pointerEvents=0;fillColor=none;top=0;left=0;bottom=0;right=0;strokeColor=inherit;align=left;verticalAlign=middle;spacingLeft=5;" parent="info-row1" vertex="1">
          <mxGeometry width="220" height="30" as="geometry" />
        </mxCell>
        <mxCell id="info-r1c2" value="Đăng nhập" style="shape=partialRectangle;html=1;collapsible=0;dropTarget=0;pointerEvents=0;fillColor=none;top=0;left=0;bottom=0;right=0;strokeColor=inherit;align=left;verticalAlign=middle;spacingLeft=5;" parent="info-row1" vertex="1">
          <mxGeometry x="220" width="520" height="30" as="geometry" />
        </mxCell>
        <mxCell id="info-row2" style="shape=tableRow;horizontal=0;startSize=0;swimlaneHead=0;swimlaneBody=0;top=0;left=0;bottom=0;right=0;collapsible=0;dropTarget=0;fillColor=none;" parent="table-info" vertex="1">
          <mxGeometry y="30" width="740" height="50" as="geometry" />
        </mxCell>
        <mxCell id="info-r2c1" value="&lt;b&gt;Mô tả sơ lược&lt;/b&gt;" style="shape=partialRectangle;html=1;collapsible=0;dropTarget=0;pointerEvents=0;fillColor=none;top=0;left=0;bottom=0;right=0;strokeColor=inherit;align=left;verticalAlign=middle;spacingLeft=5;whiteSpace=wrap;" parent="info-row2" vertex="1">
          <mxGeometry width="220" height="50" as="geometry" />
        </mxCell>
        <mxCell id="info-r2c2" value="Chức năng này cho phép người dùng đã có tài khoản đăng nhập vào hệ thống để sử dụng các tính năng của UniPlan." style="shape=partialRectangle;html=1;collapsible=0;dropTarget=0;pointerEvents=0;fillColor=none;top=0;left=0;bottom=0;right=0;strokeColor=inherit;align=left;verticalAlign=middle;spacingLeft=5;whiteSpace=wrap;" parent="info-row2" vertex="1">
          <mxGeometry x="220" width="520" height="50" as="geometry" />
        </mxCell>
        <mxCell id="info-row3" style="shape=tableRow;horizontal=0;startSize=0;swimlaneHead=0;swimlaneBody=0;top=0;left=0;bottom=0;right=0;collapsible=0;dropTarget=0;fillColor=none;" parent="table-info" vertex="1">
          <mxGeometry y="80" width="740" height="30" as="geometry" />
        </mxCell>
        <mxCell id="info-r3c1" value="&lt;b&gt;Actor chính&lt;/b&gt;" style="shape=partialRectangle;html=1;collapsible=0;dropTarget=0;pointerEvents=0;fillColor=none;top=0;left=0;bottom=0;right=0;strokeColor=inherit;align=left;verticalAlign=middle;spacingLeft=5;" parent="info-row3" vertex="1">
          <mxGeometry width="220" height="30" as="geometry" />
        </mxCell>
        <mxCell id="info-r3c2" value="Người dùng (đã có tài khoản)" style="shape=partialRectangle;html=1;collapsible=0;dropTarget=0;pointerEvents=0;fillColor=none;top=0;left=0;bottom=0;right=0;strokeColor=inherit;align=left;verticalAlign=middle;spacingLeft=5;" parent="info-row3" vertex="1">
          <mxGeometry x="220" width="520" height="30" as="geometry" />
        </mxCell>
        <mxCell id="info-row4" style="shape=tableRow;horizontal=0;startSize=0;swimlaneHead=0;swimlaneBody=0;top=0;left=0;bottom=0;right=0;collapsible=0;dropTarget=0;fillColor=none;" parent="table-info" vertex="1">
          <mxGeometry y="110" width="740" height="30" as="geometry" />
        </mxCell>
        <mxCell id="info-r4c1" value="&lt;b&gt;Tiền điều kiện (Pre-condition)&lt;/b&gt;" style="shape=partialRectangle;html=1;collapsible=0;dropTarget=0;pointerEvents=0;fillColor=none;top=0;left=0;bottom=0;right=0;strokeColor=inherit;align=left;verticalAlign=middle;spacingLeft=5;" parent="info-row4" vertex="1">
          <mxGeometry width="220" height="30" as="geometry" />
        </mxCell>
        <mxCell id="info-r4c2" value="Người dùng đã ở trang đăng nhập của hệ thống." style="shape=partialRectangle;html=1;collapsible=0;dropTarget=0;pointerEvents=0;fillColor=none;top=0;left=0;bottom=0;right=0;strokeColor=inherit;align=left;verticalAlign=middle;spacingLeft=5;" parent="info-row4" vertex="1">
          <mxGeometry x="220" width="520" height="30" as="geometry" />
        </mxCell>
        <mxCell id="info-row5" style="shape=tableRow;horizontal=0;startSize=0;swimlaneHead=0;swimlaneBody=0;top=0;left=0;bottom=0;right=0;collapsible=0;dropTarget=0;fillColor=none;" parent="table-info" vertex="1">
          <mxGeometry y="140" width="740" height="70" as="geometry" />
        </mxCell>
        <mxCell id="info-r5c1" value="&lt;b&gt;Hậu điều kiện (Post-condition)&lt;/b&gt;" style="shape=partialRectangle;html=1;collapsible=0;dropTarget=0;pointerEvents=0;fillColor=none;top=0;left=0;bottom=0;right=0;strokeColor=inherit;align=left;verticalAlign=middle;spacingLeft=5;whiteSpace=wrap;" parent="info-row5" vertex="1">
          <mxGeometry width="220" height="70" as="geometry" />
        </mxCell>
        <mxCell id="info-r5c2" value="&lt;b&gt;Thành công:&lt;/b&gt; Người dùng đăng nhập thành công, được chuyển đến trang chính của hệ thống.&lt;br&gt;&lt;b&gt;Thất bại:&lt;/b&gt; Hệ thống hiển thị thông báo lỗi tương ứng (sai thông tin, tài khoản bị khóa, ...)." style="shape=partialRectangle;html=1;collapsible=0;dropTarget=0;pointerEvents=0;fillColor=none;top=0;left=0;bottom=0;right=0;strokeColor=inherit;align=left;verticalAlign=middle;spacingLeft=5;whiteSpace=wrap;" parent="info-row5" vertex="1">
          <mxGeometry x="220" width="520" height="70" as="geometry" />
        </mxCell>
        <mxCell id="table-mainflow-login" value="" style="shape=table;startSize=0;container=1;collapsible=0;childLayout=tableLayout;fixedRows=1;rowLines=1;fontStyle=0;align=center;resizeLast=1;fontFamily=Helvetica;fontSize=12;" parent="spec-container-login" vertex="1">
          <mxGeometry y="270" width="740" height="210" as="geometry" />
        </mxCell>
        <mxCell id="mainflow-title-row" style="shape=tableRow;horizontal=0;startSize=0;swimlaneHead=0;swimlaneBody=0;top=0;left=0;bottom=0;right=0;collapsible=0;dropTarget=0;fillColor=none;" parent="table-mainflow-login" vertex="1">
          <mxGeometry width="740" height="30" as="geometry" />
        </mxCell>
        <mxCell id="mainflow-title-cell" value="&lt;b&gt;Dòng sự kiện chính (main flow)&lt;/b&gt;" style="shape=partialRectangle;html=1;collapsible=0;dropTarget=0;pointerEvents=0;fillColor=none;top=0;left=0;bottom=0;right=0;strokeColor=inherit;align=center;verticalAlign=middle;" parent="mainflow-title-row" vertex="1">
          <mxGeometry width="740" height="30" as="geometry" />
        </mxCell>
        <mxCell id="mainflow-header-row" style="shape=tableRow;horizontal=0;startSize=0;swimlaneHead=0;swimlaneBody=0;top=0;left=0;bottom=0;right=0;collapsible=0;dropTarget=0;fillColor=#f5f5f5;" parent="table-mainflow-login" vertex="1">
          <mxGeometry y="30" width="740" height="30" as="geometry" />
        </mxCell>
        <mxCell id="mainflow-h1" value="&lt;b&gt;Actor&lt;/b&gt;" style="shape=partialRectangle;html=1;collapsible=0;dropTarget=0;pointerEvents=0;fillColor=none;top=0;left=0;bottom=0;right=0;strokeColor=inherit;align=center;verticalAlign=middle;" parent="mainflow-header-row" vertex="1">
          <mxGeometry width="370" height="30" as="geometry" />
        </mxCell>
        <mxCell id="mainflow-h2" value="&lt;b&gt;System&lt;/b&gt;" style="shape=partialRectangle;html=1;collapsible=0;dropTarget=0;pointerEvents=0;fillColor=none;top=0;left=0;bottom=0;right=0;strokeColor=inherit;align=center;verticalAlign=middle;" parent="mainflow-header-row" vertex="1">
          <mxGeometry x="370" width="370" height="30" as="geometry" />
        </mxCell>
        <mxCell id="mainflow-content-row" style="shape=tableRow;horizontal=0;startSize=0;swimlaneHead=0;swimlaneBody=0;top=0;left=0;bottom=0;right=0;collapsible=0;dropTarget=0;fillColor=none;" parent="table-mainflow-login" vertex="1">
          <mxGeometry y="60" width="740" height="150" as="geometry" />
        </mxCell>
        <mxCell id="mainflow-r1c1" value="1. Yêu cầu chức năng đăng nhập.&lt;br&gt;2. Nhập email và mật khẩu.&lt;br&gt;3. Nhấn nút 'Đăng nhập' để gửi yêu cầu." style="shape=partialRectangle;html=1;collapsible=0;dropTarget=0;pointerEvents=0;fillColor=none;top=0;left=0;bottom=0;right=0;strokeColor=inherit;align=left;verticalAlign=top;whiteSpace=wrap;spacingLeft=5;" parent="mainflow-content-row" vertex="1">
          <mxGeometry width="370" height="150" as="geometry" />
        </mxCell>
        <mxCell id="mainflow-r1c2" value="1. Hiển thị form đăng nhập.&lt;br&gt;2. Tiếp nhận yêu cầu đăng nhập.&lt;br&gt;3. &lt;i&gt;Include: Xác thực người dùng&lt;/i&gt;.&lt;br&gt;4. Nếu thành công, chuyển hướng đến trang chính.&lt;br&gt;5. Nếu thất bại, &lt;i&gt;Include: Hiển thị thông báo lỗi&lt;/i&gt;." style="shape=partialRectangle;html=1;collapsible=0;dropTarget=0;pointerEvents=0;fillColor=none;top=0;left=0;bottom=0;right=0;strokeColor=inherit;align=left;verticalAlign=top;whiteSpace=wrap;spacingLeft=5;" parent="mainflow-content-row" vertex="1">
          <mxGeometry x="370" width="370" height="150" as="geometry" />
        </mxCell>
        <mxCell id="table-exceptionflow-login" value="" style="shape=table;startSize=0;container=1;collapsible=0;childLayout=tableLayout;fixedRows=1;rowLines=1;fontStyle=0;align=center;resizeLast=1;fontFamily=Helvetica;fontSize=12;" parent="spec-container-login" vertex="1">
          <mxGeometry y="500" width="740" height="320" as="geometry" />
        </mxCell>
        <mxCell id="exceptionflow-title-row" style="shape=tableRow;horizontal=0;startSize=0;swimlaneHead=0;swimlaneBody=0;top=0;left=0;bottom=0;right=0;collapsible=0;dropTarget=0;fillColor=none;" parent="table-exceptionflow-login" vertex="1">
          <mxGeometry width="740" height="30" as="geometry" />
        </mxCell>
        <mxCell id="exceptionflow-title-cell" value="&lt;b&gt;Dòng sự kiện thay thế &amp;amp; ngoại lệ (alternative &amp;amp; exception flow)&lt;/b&gt;" style="shape=partialRectangle;html=1;collapsible=0;dropTarget=0;pointerEvents=0;fillColor=none;top=0;left=0;bottom=0;right=0;strokeColor=inherit;align=center;verticalAlign=middle;" parent="exceptionflow-title-row" vertex="1">
          <mxGeometry width="740" height="30" as="geometry" />
        </mxCell>
        <mxCell id="exceptionflow-header-row" style="shape=tableRow;horizontal=0;startSize=0;swimlaneHead=0;swimlaneBody=0;top=0;left=0;bottom=0;right=0;collapsible=0;dropTarget=0;fillColor=#f5f5f5;" parent="table-exceptionflow-login" vertex="1">
          <mxGeometry y="30" width="740" height="30" as="geometry" />
        </mxCell>
        <mxCell id="exceptionflow-h1" value="&lt;b&gt;Điều kiện ngoại lệ&lt;/b&gt;" style="shape=partialRectangle;html=1;collapsible=0;dropTarget=0;pointerEvents=0;fillColor=none;top=0;left=0;bottom=0;right=0;strokeColor=inherit;align=center;verticalAlign=middle;" parent="exceptionflow-header-row" vertex="1">
          <mxGeometry width="370" height="30" as="geometry" />
        </mxCell>
        <mxCell id="exceptionflow-h2" value="&lt;b&gt;Hành động của hệ thống&lt;/b&gt;" style="shape=partialRectangle;html=1;collapsible=0;dropTarget=0;pointerEvents=0;fillColor=none;top=0;left=0;bottom=0;right=0;strokeColor=inherit;align=center;verticalAlign=middle;" parent="exceptionflow-header-row" vertex="1">
          <mxGeometry x="370" width="370" height="30" as="geometry" />
        </mxCell>
        <mxCell id="exceptionflow-row1" style="shape=tableRow;horizontal=0;startSize=0;swimlaneHead=0;swimlaneBody=0;top=0;left=0;bottom=0;right=0;collapsible=0;dropTarget=0;fillColor=none;" parent="table-exceptionflow-login" vertex="1">
          <mxGeometry y="60" width="740" height="130" as="geometry" />
        </mxCell>
        <mxCell id="exceptionflow-r1c1" value="&lt;b&gt;4a. Thông tin không hợp lệ&lt;/b&gt;&lt;br&gt;Tại bước xác thực, nếu email hoặc mật khẩu không đúng, hoặc tài khoản bị khóa." style="shape=partialRectangle;html=1;collapsible=0;dropTarget=0;pointerEvents=0;fillColor=none;top=0;left=0;bottom=0;right=0;strokeColor=inherit;align=left;verticalAlign=top;whiteSpace=wrap;spacingLeft=5;" parent="exceptionflow-row1" vertex="1">
          <mxGeometry width="370" height="130" as="geometry" />
        </mxCell>
        <mxCell id="exceptionflow-r1c2" value="1. Hệ thống hiển thị thông báo lỗi tương ứng (sai thông tin, tài khoản bị khóa, ...).&lt;br&gt;2. Cho phép người dùng nhập lại thông tin hoặc chọn chức năng 'Quên mật khẩu'." style="shape=partialRectangle;html=1;collapsible=0;dropTarget=0;pointerEvents=0;fillColor=none;top=0;left=0;bottom=0;right=0;strokeColor=inherit;align=left;verticalAlign=top;whiteSpace=wrap;spacingLeft=5;" parent="exceptionflow-row1" vertex="1">
          <mxGeometry x="370" width="370" height="130" as="geometry" />
        </mxCell>
        <mxCell id="exceptionflow-row2" style="shape=tableRow;horizontal=0;startSize=0;swimlaneHead=0;swimlaneBody=0;top=0;left=0;bottom=0;right=0;collapsible=0;dropTarget=0;fillColor=none;" parent="table-exceptionflow-login" vertex="1">
          <mxGeometry y="190" width="740" height="130" as="geometry" />
        </mxCell>
        <mxCell id="exceptionflow-r2c1" value="&lt;b&gt;5a. Quên mật khẩu&lt;/b&gt;&lt;br&gt;Người dùng chọn chức năng 'Quên mật khẩu' khi không nhớ mật khẩu." style="shape=partialRectangle;html=1;collapsible=0;dropTarget=0;pointerEvents=0;fillColor=none;top=0;left=0;bottom=0;right=0;strokeColor=inherit;align=left;verticalAlign=top;whiteSpace=wrap;spacingLeft=5;" parent="exceptionflow-row2" vertex="1">
          <mxGeometry width="370" height="130" as="geometry" />
        </mxCell>
        <mxCell id="exceptionflow-r2c2" value="1. Hệ thống hiển thị form nhập email để đặt lại mật khẩu.&lt;br&gt;2. &lt;i&gt;Include: Gửi email đặt lại mật khẩu&lt;/i&gt;." style="shape=partialRectangle;html=1;collapsible=0;dropTarget=0;pointerEvents=0;fillColor=none;top=0;left=0;bottom=0;right=0;strokeColor=inherit;align=left;verticalAlign=top;whiteSpace=wrap;spacingLeft=5;" parent="exceptionflow-row2" vertex="1">
          <mxGeometry x="370" width="370" height="130" as="geometry" />
        </mxCell>
      </root>
    </mxGraphModel>
  </diagram>
</mxfile>
